<svg width="512" height="512" viewBox="0 0 512 512" fill="none" xmlns="http://www.w3.org/2000/svg">
  <rect width="512" height="512" rx="112" fill="#091427"/>
  <rect x="28" y="28" width="456" height="456" rx="96" fill="url(#bg)" stroke="rgba(255,255,255,0.12)" stroke-width="4"/>
  <path d="M152 116C152 95.0132 169.013 78 190 78H322C342.987 78 360 95.0132 360 116V144H152V116Z" fill="#1F4C8E"/>
  <path d="M170 150H342V205C342 273.483 293.483 329 225 329H287C218.517 329 170 273.483 170 205V150Z" fill="url(#cup)"/>
  <path d="M170 164H126C106.118 164 90 180.118 90 200V212C90 260.601 129.399 300 178 300H194V264H178C149.281 264 126 240.719 126 212V200H170V164Z" fill="#D7A51F"/>
  <path d="M342 164H386C405.882 164 422 180.118 422 200V212C422 260.601 382.601 300 334 300H318V264H334C362.719 264 386 240.719 386 212V200H342V164Z" fill="#D7A51F"/>
  <path d="M228 328H284V376H228V328Z" fill="#D7A51F"/>
  <path d="M190 382C190 371.507 198.507 363 209 363H303C313.493 363 322 371.507 322 382V390H190V382Z" fill="#C61F27"/>
  <path d="M160 400H352C371.882 400 388 416.118 388 436V438H124V436C124 416.118 140.118 400 160 400Z" fill="#F3C64C"/>
  <circle cx="256" cy="226" r="52" fill="#FFF5CC" opacity="0.16"/>
  <path d="M256 184L268.678 210.702L298 214.962L276 235.977L281.356 265L256 251.302L230.644 265L236 235.977L214 214.962L243.322 210.702L256 184Z" fill="#FFF3C1"/>
  <path d="M108 428C170 398 220 386 256 386C292 386 342 398 404 428" stroke="rgba(255,255,255,0.1)" stroke-width="10" stroke-linecap="round"/>
  <defs>
    <linearGradient id="bg" x1="76" y1="64" x2="436" y2="456" gradientUnits="userSpaceOnUse">
      <stop stop-color="#0E2548"/>
      <stop offset="0.62" stop-color="#0A1630"/>
      <stop offset="1" stop-color="#C61F27"/>
    </linearGradient>
    <linearGradient id="cup" x1="188" y1="154" x2="324" y2="346" gradientUnits="userSpaceOnUse">
      <stop stop-color="#FFE08A"/>
      <stop offset="0.45" stop-color="#F5C64B"/>
      <stop offset="1" stop-color="#C98E11"/>
    </linearGradient>
  </defs>
</svg>
